<?xml version="1.0" encoding="iso-8859-1"?>
<!-- Uploaded to: SVG Repo, www.svgrepo.com, Generator: SVG Repo Mixer Tools -->
<svg version="1.1" id="Layer_1" xmlns="http://www.w3.org/2000/svg" xmlns:xlink="http://www.w3.org/1999/xlink" 
	 viewBox="0 0 512 512" xml:space="preserve">
<rect x="218.55" y="353.635" style="fill:#485360;" width="74.101" height="143.071"/>
<rect x="218.55" y="353.635" style="fill:#364351;" width="18.141" height="143.071"/>
<path style="fill:#BAB0A8;" d="M485.465,1.042h-59.539h-27.025H26.534C11.903,1.042,0,12.944,0,27.576v328.573
	c0,14.631,11.903,26.535,26.534,26.535h458.931c14.631,0,26.535-11.904,26.535-26.535V27.576
	C512,12.944,500.096,1.042,485.465,1.042z"/>
<path style="fill:#B29D94;" d="M17.77,356.149V27.576c0-14.631,11.903-26.534,26.534-26.534h-17.77C11.903,1.042,0,12.944,0,27.576
	v328.573c0,14.631,11.903,26.535,26.534,26.535h17.77C29.673,382.683,17.77,370.78,17.77,356.149z"/>
<path style="fill:#F44321;" d="M484.234,341.59c0,7.361-5.967,13.328-13.328,13.328H41.093c-7.36,0-13.328-5.966-13.328-13.328
	V42.135c0-7.361,5.967-13.328,13.328-13.328h429.813c7.36,0,13.328,5.966,13.328,13.328V341.59z"/>
<path style="fill:#C6281C;" d="M45.536,341.59V42.135c0-7.361,5.967-13.328,13.328-13.328h-17.77
	c-7.36,0-13.328,5.966-13.328,13.328v299.456c0,7.361,5.967,13.328,13.328,13.328h17.77
	C51.503,354.917,45.536,348.951,45.536,341.59z"/>
<path style="fill:#596570;" d="M332.328,482.455H301.23h-14.015h-6.406h-0.071h-6.406h-6.368h-6.406h-0.071h-5.369h-1.037h-5.368
	h-0.072h-2.229h-4.177h-6.367h-6.406h-0.072h-2.229h-4.177h-1.805h-5.864H215.7h-5.731h-12.907h-5.982h-6.478h-5.731
	c-7.872,0-14.252,6.381-14.252,14.252c0,7.871,6.379,14.252,14.252,14.252h5.731h6.478h5.982h12.907h5.731h0.614h2.532h1.805h4.177
	h2.229h0.072h6.406h6.367h4.177h2.229h0.072h5.368h1.037h5.369h0.071h6.406H271h6.406h0.071h6.406h29.412h19.033
	c7.87,0,14.249-6.381,14.249-14.252C346.577,488.836,340.198,482.455,332.328,482.455z"/>
<path style="fill:#364351;" d="M182.76,496.707c0-7.871,6.379-14.252,14.252-14.252h-5.932h-6.478h-5.731
	c-7.872,0-14.252,6.381-14.252,14.252c0,7.871,6.379,14.252,14.252,14.252h5.731h6.478h5.932
	C189.139,510.959,182.76,504.578,182.76,496.707z"/>
<g>
	<path style="fill:#FFFFFF;" d="M202.842,155.104c4.601,0,8.33-3.728,8.33-8.33v-22.213c0-4.601-3.728-8.33-8.33-8.33
		c-4.601,0-8.33,3.728-8.33,8.33v22.213C194.512,151.375,198.242,155.104,202.842,155.104z"/>
	<path style="fill:#FFFFFF;" d="M202.842,205.082c4.601,0,8.33-3.728,8.33-8.33V174.54c0-4.601-3.728-8.33-8.33-8.33
		c-4.601,0-8.33,3.728-8.33,8.33v22.213C194.512,201.354,198.242,205.082,202.842,205.082z"/>
	<path style="fill:#FFFFFF;" d="M202.842,255.06c4.601,0,8.33-3.728,8.33-8.33v-22.213c0-4.601-3.728-8.33-8.33-8.33
		c-4.601,0-8.33,3.728-8.33,8.33v22.213C194.512,251.332,198.242,255.06,202.842,255.06z"/>
	<path style="fill:#FFFFFF;" d="M202.842,105.125c4.601,0,8.33-3.728,8.33-8.33V74.583c0-4.601-3.728-8.33-8.33-8.33
		c-4.601,0-8.33,3.728-8.33,8.33v22.213C194.512,101.397,198.242,105.125,202.842,105.125z"/>
	<path style="fill:#FFFFFF;" d="M103.996,81.802h22.213c4.6,0,8.33-3.728,8.33-8.33c0-4.601-3.729-8.33-8.33-8.33h-22.213
		c-4.6,0-8.33,3.728-8.33,8.33C95.666,78.074,99.396,81.802,103.996,81.802z"/>
	<path style="fill:#FFFFFF;" d="M126.302,239.605h-22.213c-4.6,0-8.33,3.728-8.33,8.33s3.729,8.33,8.33,8.33h22.213
		c4.6,0,8.33-3.728,8.33-8.33C134.632,243.334,130.902,239.605,126.302,239.605z"/>
	<path style="fill:#FFFFFF;" d="M176.28,239.605h-22.213c-4.601,0-8.33,3.728-8.33,8.33s3.728,8.33,8.33,8.33h22.213
		c4.601,0,8.33-3.728,8.33-8.33C184.61,243.334,180.882,239.605,176.28,239.605z"/>
	<path style="fill:#FFFFFF;" d="M153.974,81.802h22.213c4.601,0,8.33-3.728,8.33-8.33c0-4.601-3.728-8.33-8.33-8.33h-22.213
		c-4.601,0-8.33,3.728-8.33,8.33C145.645,78.074,149.374,81.802,153.974,81.802z"/>
	<path style="fill:#FFFFFF;" d="M96.427,169.033h22.213c4.6,0,8.33-3.728,8.33-8.33c0-4.601-3.729-8.33-8.33-8.33H96.427
		c-4.6,0-8.33,3.728-8.33,8.33C88.097,165.305,91.827,169.033,96.427,169.033z"/>
	<path style="fill:#FFFFFF;" d="M146.405,169.033h22.213c4.6,0,8.33-3.728,8.33-8.33c0-4.601-3.729-8.33-8.33-8.33h-22.213
		c-4.6,0-8.33,3.728-8.33,8.33C138.076,165.305,141.805,169.033,146.405,169.033z"/>
	<path style="fill:#FFFFFF;" d="M331.862,81.802h22.213c4.601,0,8.33-3.728,8.33-8.33c0-4.601-3.728-8.33-8.33-8.33h-22.213
		c-4.6,0-8.33,3.728-8.33,8.33C323.532,78.074,327.26,81.802,331.862,81.802z"/>
	<path style="fill:#FFFFFF;" d="M381.84,81.802h22.213c4.601,0,8.33-3.728,8.33-8.33c0-4.601-3.728-8.33-8.33-8.33H381.84
		c-4.6,0-8.33,3.728-8.33,8.33C373.51,78.074,377.238,81.802,381.84,81.802z"/>
	<path style="fill:#FFFFFF;" d="M380.449,256.264h22.213c4.601,0,8.33-3.728,8.33-8.33s-3.728-8.33-8.33-8.33h-22.213
		c-4.601,0-8.33,3.728-8.33,8.33C372.12,252.536,375.848,256.264,380.449,256.264z"/>
	<path style="fill:#FFFFFF;" d="M413.306,150.293c0-4.601-3.728-8.33-8.33-8.33c-4.601,0-8.33,3.728-8.33,8.33v22.213
		c0,4.601,3.728,8.33,8.33,8.33c4.601,0,8.33-3.728,8.33-8.33V150.293z"/>
	<path style="fill:#FFFFFF;" d="M413.306,100.314c0-4.601-3.728-8.33-8.33-8.33c-4.601,0-8.33,3.728-8.33,8.33v22.213
		c0,4.601,3.728,8.33,8.33,8.33c4.601,0,8.33-3.728,8.33-8.33V100.314z"/>
	<path style="fill:#FFFFFF;" d="M404.976,191.941c-4.601,0-8.33,3.728-8.33,8.33v22.213c0,4.601,3.728,8.33,8.33,8.33
		c4.601,0,8.33-3.728,8.33-8.33v-22.213C413.306,195.671,409.577,191.941,404.976,191.941z"/>
	<path style="fill:#FFFFFF;" d="M330.471,256.264h22.213c4.601,0,8.33-3.728,8.33-8.33s-3.728-8.33-8.33-8.33h-22.213
		c-4.601,0-8.33,3.728-8.33,8.33C322.141,252.536,325.87,256.264,330.471,256.264z"/>
	<path style="fill:#FFFFFF;" d="M305.02,203.971c4.601,0,8.33-3.728,8.33-8.33v-22.213c0-4.601-3.728-8.33-8.33-8.33
		s-8.33,3.728-8.33,8.33v22.213C296.69,200.243,300.418,203.971,305.02,203.971z"/>
	<path style="fill:#FFFFFF;" d="M305.02,253.95c4.601,0,8.33-3.728,8.33-8.33v-22.213c0-4.601-3.728-8.33-8.33-8.33
		s-8.33,3.728-8.33,8.33v22.213C296.69,250.221,300.418,253.95,305.02,253.95z"/>
	<path style="fill:#FFFFFF;" d="M305.02,153.993c4.601,0,8.33-3.728,8.33-8.33v-22.213c0-4.601-3.728-8.33-8.33-8.33
		s-8.33,3.728-8.33,8.33v22.213C296.69,150.265,300.418,153.993,305.02,153.993z"/>
	<path style="fill:#FFFFFF;" d="M305.02,104.015c4.601,0,8.33-3.728,8.33-8.33V73.473c0-4.601-3.728-8.33-8.33-8.33
		s-8.33,3.728-8.33,8.33v22.213C296.69,100.286,300.418,104.015,305.02,104.015z"/>
	<path style="fill:#FFFFFF;" d="M254.486,135.692c4.601,0,8.33-3.728,8.33-8.33v-1.111c0-4.6-3.728-8.33-8.33-8.33
		c-4.6,0-8.329,3.729-8.329,8.33v1.111C246.156,131.963,249.886,135.692,254.486,135.692z"/>
	<path style="fill:#FFFFFF;" d="M254.486,204.551c4.601,0,8.33-3.728,8.33-8.33v-1.111c0-4.601-3.728-8.33-8.33-8.33
		c-4.6,0-8.329,3.728-8.329,8.33v1.111C246.156,200.822,249.886,204.551,254.486,204.551z"/>
</g>
<g>
	<path style="fill:#C6281C;" d="M305.02,292.915h106.827c4.599,0,8.33-3.728,8.33-8.33c0-4.6-3.731-8.33-8.33-8.33H305.02
		c-4.601,0-8.33,3.728-8.33,8.33C296.69,289.187,300.418,292.915,305.02,292.915z"/>
	<path style="fill:#C6281C;" d="M305.02,321.791h106.827c4.599,0,8.33-3.728,8.33-8.33c0-4.6-3.731-8.33-8.33-8.33H305.02
		c-4.601,0-8.33,3.729-8.33,8.33C296.69,318.063,300.418,321.791,305.02,321.791z"/>
	<path style="fill:#C6281C;" d="M103.996,276.256c-4.6,0-8.33,3.728-8.33,8.33c0,4.601,3.729,8.33,8.33,8.33h106.825
		c4.6,0,8.33-3.728,8.33-8.33c0-4.6-3.729-8.33-8.33-8.33H103.996z"/>
	<path style="fill:#C6281C;" d="M210.822,305.132H103.996c-4.6,0-8.33,3.729-8.33,8.33c0,4.601,3.729,8.33,8.33,8.33h106.825
		c4.6,0,8.33-3.728,8.33-8.33C219.152,308.862,215.421,305.132,210.822,305.132z"/>
</g>
</svg>